<svg width="18" height="16" viewBox="0 0 18 16" fill="none" xmlns="http://www.w3.org/2000/svg">
    <path fill-rule="evenodd" clip-rule="evenodd"
        d="M14.4253 3.2747L5.31399 7.23804L3.45199 6.3047C3.36427 6.26063 3.26159 6.25746 3.17132 6.29604L1.43265 7.04404C1.33108 7.0877 1.25777 7.17888 1.23693 7.28746C1.2161 7.39604 1.25046 7.50788 1.32865 7.58604L3.82465 10.0827C3.91914 10.177 4.0608 10.2059 4.18465 10.156L8.98065 8.23804L7.27865 12.7767C7.23063 12.9049 7.26591 13.0495 7.36761 13.1412C7.4693 13.2329 7.61673 13.253 7.73932 13.192L9.54999 12.2874C9.61428 12.2551 9.66643 12.203 9.69865 12.1387L12.316 6.9047L15.4493 5.73804C15.8987 5.56215 16.2179 5.1572 16.2841 4.67921C16.3502 4.20121 16.1529 3.72478 15.7682 3.43347C15.3835 3.14216 14.8715 3.08144 14.4293 3.2747H14.4253Z"
        stroke="black" stroke-width="1.5" stroke-linecap="round" stroke-linejoin="round" />
    <path
        d="M11.4278 4.57769L7.11717 2.79969C7.03562 2.76599 6.94404 2.76599 6.8625 2.79969L5.26983 3.45969C5.14522 3.51126 5.06396 3.63283 5.06396 3.76769C5.06396 3.90255 5.14522 4.02412 5.26983 4.07569L9.0165 5.62569"
        stroke="black" stroke-width="1.5" stroke-linecap="round" stroke-linejoin="round" />
</svg>