<svg width="25" height="24" viewBox="0 0 25 24" fill="#FF0026" xmlns="http://www.w3.org/2000/svg">
<g clip-path="url(#clip0_2575_5320)">
<path d="M7.5 13V5C7.5 4.73478 7.39464 4.48043 7.20711 4.29289C7.01957 4.10536 6.76522 4 6.5 4H4.5C4.23478 4 3.98043 4.10536 3.79289 4.29289C3.60536 4.48043 3.5 4.73478 3.5 5V12C3.5 12.2652 3.60536 12.5196 3.79289 12.7071C3.98043 12.8946 4.23478 13 4.5 13H7.5ZM7.5 13C8.56087 13 9.57828 13.4214 10.3284 14.1716C11.0786 14.9217 11.5 15.9391 11.5 17V18C11.5 18.5304 11.7107 19.0391 12.0858 19.4142C12.4609 19.7893 12.9696 20 13.5 20C14.0304 20 14.5391 19.7893 14.9142 19.4142C15.2893 19.0391 15.5 18.5304 15.5 18V13H18.5C19.0304 13 19.5391 12.7893 19.9142 12.4142C20.2893 12.0391 20.5 11.5304 20.5 11L19.5 6C19.3562 5.38653 19.0834 4.85976 18.7227 4.49903C18.3619 4.13831 17.9328 3.96318 17.5 4H10.5C9.70435 4 8.94129 4.31607 8.37868 4.87868C7.81607 5.44129 7.5 6.20435 7.5 7" stroke="#B2001A" stroke-width="1.5" stroke-linecap="round" stroke-linejoin="round"/>
</g>
<defs>
<clipPath id="clip0_2575_5320">
<rect width="24" height="24" fill="white" transform="matrix(1 0 0 -1 0.5 24)"/>
</clipPath>
</defs>
</svg>
