<svg width="24" height="25" viewBox="0 0 24 25" fill="none" xmlns="http://www.w3.org/2000/svg">
<path d="M12 18.5C15.3137 18.5 18 15.8137 18 12.5C18 9.18629 15.3137 6.5 12 6.5C8.68629 6.5 6 9.18629 6 12.5C6 15.8137 8.68629 18.5 12 18.5Z" stroke="#333333" stroke-width="1.5" stroke-linecap="round" stroke-linejoin="round"/>
<path d="M5 10.5C6.10457 10.5 7 9.60457 7 8.5C7 7.39543 6.10457 6.5 5 6.5C3.89543 6.5 3 7.39543 3 8.5C3 9.60457 3.89543 10.5 5 10.5Z" stroke="#333333" stroke-width="1.5" stroke-linecap="round" stroke-linejoin="round"/>
<path d="M12 6.5C13.1046 6.5 14 5.60457 14 4.5C14 3.39543 13.1046 2.5 12 2.5C10.8954 2.5 10 3.39543 10 4.5C10 5.60457 10.8954 6.5 12 6.5Z" stroke="#333333" stroke-width="1.5" stroke-linecap="round" stroke-linejoin="round"/>
<path d="M19 10.5C20.1046 10.5 21 9.60457 21 8.5C21 7.39543 20.1046 6.5 19 6.5C17.8954 6.5 17 7.39543 17 8.5C17 9.60457 17.8954 10.5 19 10.5Z" stroke="#333333" stroke-width="1.5" stroke-linecap="round" stroke-linejoin="round"/>
<path d="M5 18.5C6.10457 18.5 7 17.6046 7 16.5C7 15.3954 6.10457 14.5 5 14.5C3.89543 14.5 3 15.3954 3 16.5C3 17.6046 3.89543 18.5 5 18.5Z" stroke="#333333" stroke-width="1.5" stroke-linecap="round" stroke-linejoin="round"/>
<path d="M19 18.5C20.1046 18.5 21 17.6046 21 16.5C21 15.3954 20.1046 14.5 19 14.5C17.8954 14.5 17 15.3954 17 16.5C17 17.6046 17.8954 18.5 19 18.5Z" stroke="#333333" stroke-width="1.5" stroke-linecap="round" stroke-linejoin="round"/>
<path d="M8 22.5L12 12.5L16 22.5" stroke="#333333" stroke-width="1.5" stroke-linecap="round" stroke-linejoin="round"/>
</svg>
