<svg width="18" height="18" viewBox="0 0 18 18" fill="none" xmlns="http://www.w3.org/2000/svg">
<path d="M6.75 3.75H14.25L15.75 5.25L14.25 6.75H6.75C6.55109 6.75 6.36032 6.67098 6.21967 6.53033C6.07902 6.38968 6 6.19891 6 6V4.5C6 4.30109 6.07902 4.11032 6.21967 3.96967C6.36032 3.82902 6.55109 3.75 6.75 3.75" stroke="#141414" stroke-linecap="round" stroke-linejoin="round"/>
<path d="M9.75 9.75H4.5L3 11.25L4.5 12.75H9.75C9.94891 12.75 10.1397 12.671 10.2803 12.5303C10.421 12.3897 10.5 12.1989 10.5 12V10.5C10.5 10.3011 10.421 10.1103 10.2803 9.96967C10.1397 9.82902 9.94891 9.75 9.75 9.75Z" stroke="#141414" stroke-linecap="round" stroke-linejoin="round"/>
<path d="M9 16.5V12.75" stroke="#141414" stroke-linecap="round" stroke-linejoin="round"/>
<path d="M9 9.75V6.75" stroke="#141414" stroke-linecap="round" stroke-linejoin="round"/>
<path d="M9 3.75V2.25" stroke="#141414" stroke-linecap="round" stroke-linejoin="round"/>
</svg>
