<svg width="22" height="22" viewBox="0 0 22 22" fill="none" xmlns="http://www.w3.org/2000/svg">
<g clip-path="url(#clip0_1928_10527)">
<path d="M12.8333 7.33332C13.8459 7.33332 14.6667 6.51251 14.6667 5.49999C14.6667 4.48747 13.8459 3.66666 12.8333 3.66666C11.8208 3.66666 11 4.48747 11 5.49999C11 6.51251 11.8208 7.33332 12.8333 7.33332Z" stroke="#141414" stroke-width="1.5" stroke-linecap="round" stroke-linejoin="round"/>
<path d="M3.66699 5.5H11.0003" stroke="#141414" stroke-width="1.5" stroke-linecap="round" stroke-linejoin="round"/>
<path d="M14.667 5.5H18.3337" stroke="#141414" stroke-width="1.5" stroke-linecap="round" stroke-linejoin="round"/>
<path d="M7.33333 12.8333C8.34586 12.8333 9.16667 12.0125 9.16667 11C9.16667 9.98747 8.34586 9.16666 7.33333 9.16666C6.32081 9.16666 5.5 9.98747 5.5 11C5.5 12.0125 6.32081 12.8333 7.33333 12.8333Z" stroke="#141414" stroke-width="1.5" stroke-linecap="round" stroke-linejoin="round"/>
<path d="M3.66699 11H5.50033" stroke="#141414" stroke-width="1.5" stroke-linecap="round" stroke-linejoin="round"/>
<path d="M9.16699 11H18.3337" stroke="#141414" stroke-width="1.5" stroke-linecap="round" stroke-linejoin="round"/>
<path d="M15.5833 18.3333C16.5959 18.3333 17.4167 17.5125 17.4167 16.5C17.4167 15.4875 16.5959 14.6667 15.5833 14.6667C14.5708 14.6667 13.75 15.4875 13.75 16.5C13.75 17.5125 14.5708 18.3333 15.5833 18.3333Z" stroke="#141414" stroke-width="1.5" stroke-linecap="round" stroke-linejoin="round"/>
<path d="M3.66699 16.5H13.7503" stroke="#141414" stroke-width="1.5" stroke-linecap="round" stroke-linejoin="round"/>
<path d="M17.417 16.5H18.3337" stroke="#141414" stroke-width="1.5" stroke-linecap="round" stroke-linejoin="round"/>
</g>
<defs>
<clipPath id="clip0_1928_10527">
<rect width="22" height="22" fill="white"/>
</clipPath>
</defs>
</svg>
