<svg width="12" height="12" viewBox="0 0 28 28" fill="none" xmlns="http://www.w3.org/2000/svg">
<circle r="13" transform="matrix(-1 0 0 1 14 14)" stroke="#006C6F" stroke-width="2"/>
<mask id="path-2-inside-1_1716_162" fill="white">
<path d="M14 28C17.713 28 21.274 26.525 23.8995 23.8995C26.525 21.274 28 17.713 28 14C28 10.287 26.525 6.72601 23.8995 4.10051C21.274 1.475 17.713 -2.13609e-07 14 -6.11959e-07L14 14L14 28Z"/>
</mask>
<path d="M14 28C17.713 28 21.274 26.525 23.8995 23.8995C26.525 21.274 28 17.713 28 14C28 10.287 26.525 6.72601 23.8995 4.10051C21.274 1.475 17.713 -2.13609e-07 14 -6.11959e-07L14 14L14 28Z" fill="#006C6F" stroke="#006C6F" stroke-width="2" mask="url(#path-2-inside-1_1716_162)"/>
</svg>
