<svg width="21" height="20" viewBox="0 0 21 20" fill="none" xmlns="http://www.w3.org/2000/svg">
<path d="M13.8027 18.1817H14.6286C16.2258 18.1817 17.519 17.3087 17.519 15.7271V13.9517" stroke="#141414" stroke-width="1.5" stroke-linecap="round" stroke-linejoin="round"/>
<path fill-rule="evenodd" clip-rule="evenodd" d="M16.6934 7.54541C18.303 7.54428 19.6792 8.69275 19.9515 10.2645C20.2238 11.8362 19.3129 13.3736 17.795 13.9043C17.5423 13.993 17.2618 13.9547 17.0428 13.8015C16.8238 13.6483 16.6935 13.3992 16.6934 13.1336L16.6934 7.54541Z" stroke="#141414" stroke-width="1.5" stroke-linecap="round" stroke-linejoin="round"/>
<path fill-rule="evenodd" clip-rule="evenodd" d="M4.30602 7.54541C2.69636 7.54428 1.32022 8.69275 1.04792 10.2645C0.775618 11.8362 1.68644 13.3736 3.20435 13.9043C3.45707 13.993 3.73753 13.9547 3.95655 13.8015C4.17557 13.6483 4.30587 13.3992 4.30602 13.1336V7.54541Z" stroke="#141414" stroke-width="1.5" stroke-linecap="round" stroke-linejoin="round"/>
<path d="M16.6943 8.77273V7.13637C16.6943 3.74734 13.9212 1 10.5005 1C7.07971 1 4.30664 3.74734 4.30664 7.13637V8.77273" stroke="#141414" stroke-width="1.5" stroke-linecap="round" stroke-linejoin="round"/>
<path fill-rule="evenodd" clip-rule="evenodd" d="M10.0876 17.3638H13.3909C13.619 17.3638 13.8039 17.5469 13.8039 17.7729V18.591C13.8039 18.817 13.619 19.0001 13.3909 19.0001H10.0876C9.63146 19.0001 9.26172 18.6338 9.26172 18.182V18.182C9.26172 17.7301 9.63146 17.3638 10.0876 17.3638Z" stroke="#141414" stroke-width="1.5" stroke-linecap="round" stroke-linejoin="round"/>
</svg>
