<svg width="24" height="24" viewBox="0 0 16 17" fill="none" xmlns="http://www.w3.org/2000/svg">
<g clip-path="url(#clip0_2138_1447)">
<path d="M8 9.83337C9.10457 9.83337 10 8.93794 10 7.83337C10 6.7288 9.10457 5.83337 8 5.83337C6.89543 5.83337 6 6.7288 6 7.83337C6 8.93794 6.89543 9.83337 8 9.83337Z" stroke="#8C8C8C" stroke-width="1.5" stroke-linecap="round" stroke-linejoin="round"/>
<path d="M11.7717 11.6047L8.94299 14.4334C8.69298 14.6831 8.35405 14.8234 8.00066 14.8234C7.64727 14.8234 7.30834 14.6831 7.05833 14.4334L4.22899 11.6047C3.48314 10.8588 2.97522 9.90851 2.76945 8.87396C2.56369 7.8394 2.66932 6.76706 3.073 5.79254C3.47667 4.81801 4.16026 3.98508 5.03732 3.39905C5.91437 2.81303 6.94551 2.50024 8.00033 2.50024C9.05515 2.50024 10.0863 2.81303 10.9633 3.39905C11.8404 3.98508 12.524 4.81801 12.9277 5.79254C13.3313 6.76706 13.437 7.8394 13.2312 8.87396C13.0254 9.90851 12.5175 10.8588 11.7717 11.6047V11.6047Z" stroke="#8C8C8C" stroke-width="1.5" stroke-linecap="round" stroke-linejoin="round"/>
</g>
<defs>
<clipPath id="clip0_2138_1447">
<rect width="16" height="16" fill="white" transform="translate(0 0.5)"/>
</clipPath>
</defs>
</svg>
