<svg width="23" height="21" viewBox="0 0 23 21" fill="none" xmlns="http://www.w3.org/2000/svg">
<path d="M1.73043 2.29103L13.8684 5.04593C15.3916 5.453 16.4592 6.69815 16.5217 8.14032V18.1008C16.5622 18.7156 16.2698 19.3095 15.7387 19.6918C15.2076 20.0741 14.5046 20.1966 13.8557 20.0198L3.66974 17.8418C2.14125 17.4592 1.06126 16.2208 1 14.7806V3.99012C1.00451 2.61657 2.22822 1.5041 3.73913 1.5H19.2609C20.772 1.50365 21.996 2.61638 22 3.99012V13.1206C21.996 14.4943 20.772 15.607 19.2609 15.6107H16.5217" stroke="#333333" stroke-width="1.5" stroke-linecap="round" stroke-linejoin="round"/>
<path d="M9.2207 3.99023H18.3511" stroke="#333333" stroke-width="1.5" stroke-linecap="round" stroke-linejoin="round"/>
<path fill-rule="evenodd" clip-rule="evenodd" d="M12.4159 13.9505C13.4245 13.9505 14.242 13.2073 14.242 12.2905C14.242 11.3736 13.4245 10.6304 12.4159 10.6304C11.4074 10.6304 10.5898 11.3736 10.5898 12.2905C10.5898 13.2073 11.4074 13.9505 12.4159 13.9505Z" stroke="#333333" stroke-width="1.5" stroke-linecap="round" stroke-linejoin="round"/>
<path d="M16.5254 8.14014H18.3515" stroke="#333333" stroke-width="1.5" stroke-linecap="round" stroke-linejoin="round"/>
</svg>
