<svg width="16" height="16" viewBox="0 0 16 16" fill="none" xmlns="http://www.w3.org/2000/svg">
<g clip-path="url(#clip0_7793_114775)">
<path d="M12.6667 2.6665H10L8.66667 5.99984L10.3333 6.99984C9.61936 8.44752 8.44769 9.6192 7 10.3332L6 8.6665L2.66667 9.99984V12.6665C2.66667 13.0201 2.80714 13.3593 3.05719 13.6093C3.30724 13.8594 3.64638 13.9998 4 13.9998C6.60049 13.8418 9.05323 12.7375 10.8954 10.8953C12.7377 9.05307 13.842 6.60033 14 3.99984C14 3.64622 13.8595 3.30708 13.6095 3.05703C13.3594 2.80698 13.0203 2.6665 12.6667 2.6665" stroke="#141414" stroke-width="1.5" stroke-linecap="round" stroke-linejoin="round"/>
</g>
<defs>
<clipPath id="clip0_7793_114775">
<rect width="16" height="16" fill="white" transform="matrix(-1 0 0 1 16 0)"/>
</clipPath>
</defs>
</svg>
